name Run_400 02_newCOP3_v24.mot
datacolumns 19
datarows 128
range 4.09 4.217
DataType=double
version=3
OpenSimVersion=4.3-2021-08-27-4bc7ad9
endheader
time	R_ground_force_vx	R_ground_force_vy	R_ground_force_vz	R_ground_force_px	R_ground_force_py	R_ground_force_pz	L_ground_force_vx	L_ground_force_vy	L_ground_force_vz	L_ground_force_px	L_ground_force_py	L_ground_force_pz	R_ground_torque_x	R_ground_torque_y	R_ground_torque_z	L_ground_torque_x	L_ground_torque_y	L_ground_torque_z
4.09	0	0	0	0	0	0	0	0	0	0	0	0	0	0	0	0	0	0
4.091	0	0	0	0	0	0	0	0	0	0	0	0	0	0	0	0	0	0
4.092	0	0	0	0	0	0	0	0	0	0	0	0	0	0	0	0	0	0
4.093	0	0	0	0	0	0	0	0	0	0	0	0	0	0	0	0	0	0
4.094	0	0	0	0	0	0	0	0	0	0	0	0	0	0	0	0	0	0
4.095	0	0	0	0	0	0	0	0	0	0	0	0	0	0	0	0	0	0
4.096	0	0	0	0	0	0	0	0	0	0	0	0	0	0	0	0	0	0
4.097	0	0	0	0	0	0	0	0	0	0	0	0	0	0	0	0	0	0
4.098	0	0	0	0	0	0	0	0	0	0	0	0	0	0	0	0	0	0
4.099	0	0	0	0	0	0	0	0	0	0	0	0	0	0	0	0	0	0
4.1	0	0	0	0	0	0	0	0	0	0	0	0	0	0	0	0	0	0
4.101	0	0	0	0	0	0	0	0	0	0	0	0	0	0	0	0	0	0
4.102	0	0	0	0	0	0	0	0	0	0	0	0	0	0	0	0	0	0
4.103	0	0	0	0	0	0	0	0	0	0	0	0	0	0	0	0	0	0
4.104	0	0	0	0	0	0	0	0	0	0	0	0	0	0	0	0	0	0
4.105	0	0	0	0	0	0	0	0	0	0	0	0	0	0	0	0	0	0
4.106	0	0	0	0	0	0	0	0	0	0	0	0	0	0	0	0	0	0
4.107	0	0	0	0	0	0	0	0	0	0	0	0	0	0	0	0	0	0
4.108	0	0	0	0	0	0	0	0	0	0	0	0	0	0	0	0	0	0
4.109	0	0	0	0	0	0	0	0	0	0	0	0	0	0	0	0	0	0
4.11	-3.564094	11.18684	-3.493303	0.948386	0	-0.216923	0	0	0	0	0	0	0	-1.437222	0	0	0	0
4.111	-4.077363	12.70372	-3.99719	0.9512930000000001	0	-0.22316	0	0	0	0	0	0	0	-1.353917	0	0	0	0
4.112	-4.73541	14.515059	-4.52544	0.955361	0	-0.22824	0	0	0	0	0	0	0	-1.261784	0	0	0	0
4.113	-5.551002	16.661907	-5.080073	0.959987	0	-0.232337	0	0	0	0	0	0	0	-1.160962	0	0	0	0
4.114	-6.536774	19.188456	-5.66343	0.964683	0	-0.235631	0	0	0	0	0	0	0	-1.05163	0	0	0	0
4.115	-7.705199	22.142084	-6.278131	0.969094	0	-0.238292	0	0	0	0	0	0	0	-0.934007	0	0	0	0
4.116	-9.068564	25.573416	-6.927028	0.972988	0	-0.24047	0	0	0	0	0	0	0	-0.808351	0	0	0	0
4.117	-10.638928	29.536324	-7.613144	0.9762380000000001	0	-0.242289	0	0	0	0	0	0	0	-0.674963	0	0	0	0
4.118	-12.428078	34.087929	-8.339606	0.978796	0	-0.243847	0	0	0	0	0	0	0	-0.534183	0	0	0	0
4.119	-14.447451	39.288506	-9.109571000000001	0.980676	0	-0.245217	0	0	0	0	0	0	0	-0.38639	0	0	0	0
4.12	-16.708048	45.201286	-9.926140999999999	0.981928	0	-0.246455	0	0	0	0	0	0	0	-0.232005	0	0	0	0
4.121	-19.220304	51.892147	-10.792288	0.982625	0	-0.247597	0	0	0	0	0	0	0	-0.07148599999999999	0	0	0	0
4.122	-21.993921	59.429142	-11.710758	0.982853	0	-0.24867	0	0	0	0	0	0	-0	0.094669	-0	0	0	0
4.123	-25.037661	67.881828	-12.68399	0.982697	0	-0.24969	0	0	0	0	0	0	-0	0.265928	-0	0	0	0
4.124	-28.359087	77.320427	-13.714019	0.98224	0	-0.250666	0	0	0	0	0	0	-0	0.44172	-0	0	0	0
4.125	-31.964256	87.814774	-14.802399	0.981556	0	-0.251604	0	0	0	0	0	0	-0	0.621443	-0	0	0	0
4.126	-35.85738	99.43309000000001	-15.950113	0.98071	0	-0.252506	0	0	0	0	0	0	-0	0.80446	-0	0	0	0
4.127	-40.040421	112.240631	-17.157505	0.979755	0	-0.253374	0	0	0	0	0	0	-0	0.990105	-0	0	0	0
4.128	-44.512676	126.298111	-18.424198	0.978735	0	-0.254208	0	0	0	0	0	0	-0	1.177686	-0	0	0	0
4.129	-49.270355	141.660233	-19.749043	0.977681	0	-0.255009	0	0	0	0	0	0	-0	1.366485	-0	0	0	0
4.13	-54.306137	158.374084	-21.130056	0.976616	0	-0.255776	0	0	0	0	0	0	-0	1.555759	-0	0	0	0
4.131	-59.608765	176.477661	-22.56439	0.975554	0	-0.256513	0	0	0	0	0	0	-0	1.744751	-0	0	0	0
4.132	-65.162712	195.998566	-24.04829	0.974502	0	-0.257219	0	0	0	0	0	0	-0	1.932684	-0	0	0	0
4.133	-70.94787599999999	216.952927	-25.577085	0.97346	0	-0.257899	0	0	0	0	0	0	-0	2.118772	-0	0	0	0
4.134	-76.939415	239.344604	-27.145182	0.972425	0	-0.258553	0	0	0	0	0	0	-0	2.302218	-0	0	0	0
4.135	-83.107704	263.164764	-28.746073	0.9713889999999999	0	-0.259186	0	0	0	0	0	0	-0	2.482223	-0	0	0	0
4.136	-89.418434	288.391754	-30.37236	0.970341	0	-0.2598	0	0	0	0	0	0	-0	2.657987	-0	0	0	0
4.137	-95.83284	314.991608	-32.015789	0.969269	0	-0.260399	0	0	0	0	0	0	-0	2.828715	-0	0	0	0
4.138	-102.308197	342.91864	-33.667301	0.96816	0	-0.260987	0	0	0	0	0	0	-0	2.993619	-0	0	0	0
4.139	-108.798393	372.116638	-35.317081	0.966998	0	-0.261566	0	0	0	0	0	0	-0	3.151928	-0	0	0	0
4.14	-115.254761	402.520233	-36.954659	0.965771	0	-0.262139	0	0	0	0	0	0	-0	3.302885	-0	0	0	0
4.141	-121.627052	434.05658	-38.568954	0.964464	0	-0.262711	0	0	0	0	0	0	-0	3.445759	-0	0	0	0
4.142	-127.864555	466.647095	-40.148403	0.963064	0	-0.263283	0	0	0	0	0	0	-0	3.579845	-0	0	0	0
4.143	-133.917343	500.209351	-41.681038	0.961557	0	-0.263857	0	0	0	0	0	0	-0	3.704472	-0	0	0	0
4.144	-139.737656	534.658813	-43.154602	0.959934	0	-0.264437	0	0	0	0	0	0	-0	3.819005	-0	0	0	0
4.145	-145.28125	569.9104610000001	-44.556664	0.958184	0	-0.265023	0	0	0	0	0	0	-0	3.922851	-0	0	0	0
4.146	-150.508789	605.880249	-45.874737	0.956299	0	-0.265618	0	0	0	0	0	0	-0	4.015463	-0	0	0	0
4.147	-155.387192	642.486145	-47.096397	0.954273	0	-0.266222	0	0	0	0	0	0	-0	4.096346	-0	0	0	0
4.148	-159.890839	679.649109	-48.209415	0.9520999999999999	0	-0.266836	0	0	0	0	0	0	-0	4.16506	-0	0	0	0
4.149	-164.002502	717.293274	-49.20187	0.949781	0	-0.267461	0	0	0	0	0	0	-0	4.221221	-0	0	0	0
4.15	-167.714233	755.34613	-50.062286	0.947313	0	-0.268097	0	0	0	0	0	0	-0	4.264511	-0	0	0	0
4.151	-171.027756	793.738464	-50.779758	0.944701	0	-0.268743	0	0	0	0	0	0	-0	4.294675	-0	0	0	0
4.152	-173.954636	832.403687	-51.344063	0.941949	0	-0.269399	0	0	0	0	0	0	-0	4.31153	-0	0	0	0
4.153	-176.516037	871.277466	-51.7458	0.939065	0	-0.270064	0	0	0	0	0	0	-0	4.31496	-0	0	0	0
4.154	-178.742172	910.296631	-51.97649	0.9360579999999999	0	-0.270737	0	0	0	0	0	0	-0	4.304928	-0	0	0	0
4.155	-180.671326	949.398743	-52.028709	0.932941	0	-0.271417	0	0	0	0	0	0	-0	4.281469	-0	0	0	0
4.156	-182.348541	988.521179	-51.896172	0.929727	0	-0.272102	0	0	0	0	0	0	-0	4.244696	-0	0	0	0
4.157	-183.824142	1027.600708	-51.573868	0.926431	0	-0.272791	0	0	0	0	0	0	-0	4.194799	-0	0	0	0
4.158	-185.151932	1066.572998	-51.058125	0.923069	0	-0.27348	0	0	0	0	0	0	-0	4.132049	-0	0	0	0
4.159	-186.387238	1105.372192	-50.346725	0.919658	0	-0.27417	0	0	0	0	0	0	-0	4.056792	-0	0	0	0
4.16	-187.585083	1143.931641	-49.438969	0.916215	0	-0.274857	0	0	0	0	0	0	-0	3.969453	-0	0	0	0
4.161	-188.798218	1182.18335	-48.335747	0.912757	0	-0.27554	0	0	0	0	0	0	-0	3.870533	-0	0	0	0
4.162	-190.075409	1220.059082	-47.039612	0.909299	0	-0.276216	0	0	0	0	0	0	-0	3.760606	-0	0	0	0
4.163	-191.45993	1257.490601	-45.554798	0.905857	0	-0.276884	0	0	0	0	0	0	-0	3.640322	-0	0	0	0
4.164	-192.988327	1294.411133	-43.887272	0.902444	0	-0.277543	0	0	0	0	0	0	-0	3.510396	-0	0	0	0
4.165	-194.689545	1330.755371	-42.044735	0.899072	0	-0.278189	0	0	0	0	0	0	-0	3.371614	-0	0	0	0
4.166	-196.584335	1366.46167	-40.036629	0.895751	0	-0.278823	0	0	0	0	0	0	-0	3.224818	-0	0	0	0
4.167	-198.68515	1401.47168	-37.8741	0.8924879999999999	0	-0.279442	0	0	0	0	0	0	-0	3.070914	-0	0	0	0
4.168	-200.996231	1435.732178	-35.569965	0.889289	0	-0.280045	0	0	0	0	0	0	-0	2.910857	-0	0	0	0
4.169	-203.514069	1469.195557	-33.138638	0.886159	0	-0.280632	0	0	0	0	0	0	-0	2.745653	-0	0	0	0
4.17	-206.228073	1501.820435	-30.596039	0.883098	0	-0.281202	0	0	0	0	0	0	-0	2.576347	-0	0	0	0
4.171	-209.121338	1533.571899	-27.959488	0.880107	0	-0.281754	0	0	0	0	0	0	-0	2.404022	-0	0	0	0
4.172	-212.171539	1564.422485	-25.247566	0.877183	0	-0.282288	0	0	0	0	0	0	-0	2.22979	-0	0	0	0
4.173	-215.351837	1594.351318	-22.479954	0.874323	0	-0.282803	0	0	0	0	0	0	-0	2.054787	-0	0	0	0
4.174	-218.631714	1623.344727	-19.677254	0.871521	0	-0.283299	0	0	0	0	0	0	-0	1.880165	-0	0	0	0
4.175	-221.977722	1651.395752	-16.860786	0.868772	0	-0.283777	0	0	0	0	0	0	-0	1.707084	-0	0	0	0
4.176	-225.354202	1678.503906	-14.052374	0.866069	0	-0.284236	0	0	0	0	0	0	-0	1.536707	-0	0	0	0
4.177	-228.723694	1704.674316	-11.274102	0.863403	0	-0.284677	0	0	0	0	0	0	-0	1.370192	-0	0	0	0
4.178	-232.047577	1729.917847	-8.548079	0.860768	0	-0.285099	0	0	0	0	0	0	-0	1.208683	-0	0	0	0
4.179	-235.286255	1754.249878	-5.896172	0.858154	0	-0.285503	0	0	0	0	0	0	-0	1.053305	-0	0	0	0
4.18	-238.399689	1777.690063	-3.339756	0.855553	0	-0.28589	0	0	0	0	0	0	-0	0.905156	-0	0	0	0
4.181	-241.34761	1800.261719	-0.899448	0.852956	0	-0.286259	0	0	0	0	0	0	-0	0.7653	-0	0	0	0
4.182	-244.090027	1821.990967	1.405143	0.850357	0	-0.286612	0	0	0	0	0	0	-0	0.634758	-0	0	0	0
4.183	-246.58757	1842.906006	3.555668	0.847747	0	-0.286947	0	0	0	0	0	0	-0	0.514507	-0	0	0	0
4.184	-248.80217	1863.036987	5.535264	0.84512	0	-0.287267	0	0	0	0	0	0	-0	0.405468	-0	0	0	0
4.185	-250.697464	1882.415039	7.32877	0.842469	0	-0.28757	0	0	0	0	0	0	-0	0.308504	-0	0	0	0
4.186	-252.239624	1901.071411	8.92292	0.839788	0	-0.287857	0	0	0	0	0	0	-0	0.224411	-0	0	0	0
4.187	-253.397919	1919.036987	10.306506	0.837075	0	-0.288129	0	0	0	0	0	0	-0	0.153918	-0	0	0	0
4.188	-254.145401	1936.342041	11.470514	0.834324	0	-0.288385	0	0	0	0	0	0	-0	0.097677	-0	0	0	0
4.189	-254.459518	1953.015137	12.408227	0.831534	0	-0.288625	0	0	0	0	0	0	-0	0.056265	-0	0	0	0
4.19	-254.322662	1969.082397	13.115296	0.828703	0	-0.288849	0	0	0	0	0	0	-0	0.030175	-0	0	0	0
4.191	-253.722519	1984.567993	13.589769	0.82583	0	-0.289057	0	0	0	0	0	0	-0	0.019817	-0	0	0	0
4.192	-252.652359	1999.492676	13.832091	0.822915	0	-0.289249	0	0	0	0	0	0	-0	0.025513	-0	0	0	0
4.193	-251.111053	2013.873901	13.845061	0.819958	0	-0.289424	0	0	0	0	0	0	-0	0.047501	-0	0	0	0
4.194	-249.103088	2027.726074	13.633758	0.816963	0	-0.289583	0	0	0	0	0	0	-0	0.085925	-0	0	0	0
4.195	-246.638245	2041.059692	13.205428	0.81393	0	-0.289724	0	0	0	0	0	0	-0	0.140844	-0	0	0	0
4.196	-243.731277	2053.882324	12.569345	0.810863	0	-0.289849	0	0	0	0	0	0	-0	0.212225	-0	0	0	0
4.197	-240.401382	2066.198242	11.736632	0.807766	0	-0.289956	0	0	0	0	0	0	-0	0.299949	-0	0	0	0
4.198	-236.671616	2078.008301	10.720075	0.8046410000000001	0	-0.290046	0	0	0	0	0	0	-0	0.403811	-0	0	0	0
4.199	-232.568298	2089.311523	9.53389	0.801493	0	-0.290119	0	0	0	0	0	0	-0	0.523518	-0	0	0	0
4.2	-228.1203	2100.10376	8.193496	0.798325	0	-0.290174	0	0	0	0	0	0	-0	0.658699	-0	0	0	0
4.201	-223.358368	2110.379639	6.715262	0.795142	0	-0.290211	0	0	0	0	0	0	-0	0.8089	-0	0	0	0
4.202	-218.314392	2120.131836	5.116252	0.791949	0	-0.290232	0	0	0	0	0	0	-0	0.973594	-0	0	0	0
4.203	-213.020859	2129.352051	3.413965	0.788748	0	-0.290235	0	0	0	0	0	0	-0	1.152182	-0	0	0	0
4.204	-207.510056	2138.030762	1.626079	0.785544	0	-0.290222	0	0	0	0	0	0	-0	1.343995	-0	0	0	0
4.205	-201.813522	2146.158203	-0.229797	0.782341	0	-0.290193	0	0	0	0	0	0	-0	1.548304	-0	0	0	0
4.206	-195.961456	2153.723633	-2.136358	0.779141	0	-0.290148	0	0	0	0	0	0	-0	1.764318	-0	0	0	0
4.207	-189.982071	2160.716797	-4.076819	0.775948	0	-0.290087	0	0	0	0	0	0	-0	1.991197	-0	0	0	0
4.208	-183.901184	2167.126709	-6.035119	0.772763	0	-0.290012	0	0	0	0	0	0	-0	2.228049	-0	0	0	0
4.209	-177.741608	2172.943115	-7.996087	0.769588	0	-0.289923	0	0	0	0	0	0	-0	2.473942	-0	0	0	0
4.21	-171.522827	2178.155762	-9.945593000000001	0.766425	0	-0.289821	0	0	0	0	0	0	-0	2.727905	-0	0	0	0
4.211	-165.26062	2182.755127	-11.870667	0.763274	0	-0.289706	0	0	0	0	0	0	-0	2.988937	-0	0	0	0
4.212	-158.966827	2186.731934	-13.759583	0.760136	0	-0.289581	0	0	0	0	0	0	-0	3.256011	-0	0	0	0
4.213	-152.649231	2190.077637	-15.60192	0.757009	0	-0.289445	0	0	0	0	0	0	-0	3.528077	-0	0	0	0
4.214	-146.311554	2192.78418	-17.388588	0.753893	0	-0.2893	0	0	0	0	0	0	-0	3.804073	-0	0	0	0
4.215	-139.953629	2194.844482	-19.111828	0.750786	0	-0.289146	0	0	0	0	0	0	-0	4.082926	-0	0	0	0
4.216	-133.571686	2196.252441	-20.765179	0.747686	0	-0.288987	0	0	0	0	0	0	-0	4.36356	-0	0	0	0
4.217	-127.158775	2197.002441	-22.343433	0.744591	0	-0.288822	0	0	0	0	0	0	-0	4.644898	-0	0	0	0
